<svg width="601" height="44" viewBox="0 0 601 44" fill="none" xmlns="http://www.w3.org/2000/svg">
<path d="M36.0811 0.500977L36.9844 1.13574C36.6426 2.71452 36.1706 3.95964 35.5684 4.87109C34.9824 5.78255 34.1117 6.50684 32.9561 7.04395C31.8167 7.56478 30.4984 7.8252 29.001 7.8252C28.2035 7.8252 27.235 7.77637 26.0957 7.67871V32.3613C28.5697 31.6126 30.5391 30.6523 32.0039 29.4805C33.4688 28.2923 34.8278 26.5915 36.0811 24.3779L36.9844 24.8174C36.2682 26.9984 35.4382 28.748 34.4941 30.0664C32.9805 32.1986 31.0273 33.8913 28.6348 35.1445C26.2422 36.3815 23.4753 37 20.334 37C17.2741 37 14.4095 36.4141 11.7402 35.2422C10.194 34.5586 8.77799 33.5983 7.49219 32.3613C6.20638 31.1243 5.14844 29.627 4.31836 27.8691C3.50456 26.1113 3.09766 24.1175 3.09766 21.8877C3.09766 19.6416 3.54525 17.4932 4.44043 15.4424C5.33561 13.3916 6.65397 11.4303 8.39551 9.55859C9.50228 8.38672 11.0648 7.09277 13.083 5.67676L10.0068 5.50586C8.86751 5.44076 7.60612 5.6849 6.22266 6.23828C4.83919 6.77539 3.75684 7.49967 2.97559 8.41113C2.21061 9.32259 1.54329 10.6816 0.973633 12.4883L0.0703125 11.9512C0.623698 9.63997 1.33984 7.84147 2.21875 6.55566C3.39062 4.84668 4.93685 3.52832 6.85742 2.60059C8.77799 1.65658 10.9671 1.18457 13.4248 1.18457C15.1338 1.18457 18.153 1.54264 22.4824 2.25879C26.8118 2.97493 29.7904 3.33301 31.418 3.33301C32.5085 3.33301 33.3385 3.17025 33.9082 2.84473C34.4941 2.50293 35.2184 1.72168 36.0811 0.500977ZM15.8174 5.9209L14.5234 5.79883C12.3424 7.67057 10.7393 9.54232 9.71387 11.4141C8.3304 13.9368 7.63867 16.5329 7.63867 19.2021C7.63867 23.7594 9.51042 27.4785 13.2539 30.3594C14.4421 29.3665 15.1663 28.5609 15.4268 27.9424C15.6872 27.3239 15.8174 26.0625 15.8174 24.1582V5.9209ZM24.9727 7.45898C23.4264 7.2474 22.0592 7.01953 20.8711 6.77539V21.375C20.8711 23.084 20.7979 24.1745 20.6514 24.6465C20.5212 25.1022 20.2038 25.623 19.6992 26.209C18.7878 27.2181 16.9648 28.8132 14.2305 30.9941C15.5977 31.6615 16.7044 32.109 17.5508 32.3369C19.0156 32.7275 20.4235 32.9229 21.7744 32.9229C22.4906 32.9229 23.5566 32.8333 24.9727 32.6543V7.45898ZM68.4414 0.0126953L68.9053 1.03809C66.7568 1.78678 65.1699 2.54362 64.1445 3.30859C63.1191 4.07357 62.4518 4.87923 62.1426 5.72559C61.8333 6.57194 61.6787 7.94727 61.6787 9.85156V14.9053L71.2002 7.26367C73.2021 8.5332 74.7158 9.72949 75.7412 10.8525C76.7666 11.9756 77.4421 13.0986 77.7676 14.2217C78.1094 15.3447 78.2803 17.1839 78.2803 19.7393V23.377C78.2803 25.2812 78.1582 26.6973 77.9141 27.625C77.6862 28.5527 77.2142 29.4723 76.498 30.3838C75.4564 31.7184 73.666 33.3867 71.127 35.3887C69.304 36.821 68.181 37.8138 67.7578 38.3672C67.3346 38.9206 67.123 39.3926 67.123 39.7832C67.123 39.9948 67.2044 40.182 67.3672 40.3447C67.5299 40.5075 67.7578 40.5889 68.0508 40.5889C68.2298 40.5889 68.474 40.5482 68.7832 40.4668C69.1087 40.4017 69.361 40.3691 69.54 40.3691C69.9632 40.3691 70.2806 40.4749 70.4922 40.6865C70.7038 40.8981 70.8096 41.1911 70.8096 41.5654C70.8096 42.0212 70.6305 42.3955 70.2725 42.6885C69.7842 43.0954 69.1901 43.2988 68.4902 43.2988C67.7415 43.2988 67.0986 42.9977 66.5615 42.3955C66.0244 41.8096 65.7559 41.0934 65.7559 40.2471C65.7559 39.6611 65.9512 38.9694 66.3418 38.1719C66.7487 37.3906 67.7415 36.0316 69.3203 34.0947C70.8991 32.1416 71.9163 30.6686 72.3721 29.6758C72.8441 28.6667 73.1696 27.446 73.3486 26.0137C71.3304 25.0697 69.4993 24.5977 67.8555 24.5977C65.7559 24.5977 63.6807 25.0778 61.6299 26.0381C59.5791 26.9984 57.2109 28.6992 54.5254 31.1406C55.6484 31.0918 56.4867 31.0674 57.04 31.0674C58.3258 31.0674 60.0511 31.1732 62.2158 31.3848C62.818 31.4499 63.347 31.4824 63.8027 31.4824C64.6003 31.4824 65.3083 31.2871 65.9268 30.8965C66.5615 30.5059 67.2044 29.8385 67.8555 28.8945L68.9053 29.4805L63.4609 37.1465C61.2311 36.2025 59.2861 35.5352 57.626 35.1445C55.9821 34.7539 54.3138 34.5586 52.6211 34.5586C50.7168 34.5586 49.0241 34.7946 47.543 35.2666C46.0618 35.7223 45.0202 36.3083 44.418 37.0244C43.9622 37.5778 43.7344 38.0742 43.7344 38.5137C43.7344 38.8229 43.9297 39.2705 44.3203 39.8564C44.597 40.2471 44.7354 40.6214 44.7354 40.9795C44.7354 41.3864 44.6133 41.7201 44.3691 41.9805C44.125 42.2409 43.8483 42.3711 43.5391 42.3711C43.1484 42.3711 42.766 42.1514 42.3916 41.7119C42.0173 41.2725 41.8301 40.7354 41.8301 40.1006C41.8301 39.3356 42.0335 38.5788 42.4404 37.8301C42.8636 37.0977 43.7832 36.0153 45.1992 34.583C46.6315 33.1344 47.5592 32.0195 47.9824 31.2383C48.4056 30.457 48.6172 29.6921 48.6172 28.9434C48.6172 28.3737 48.4626 27.9261 48.1533 27.6006C47.8441 27.2751 47.429 27.1123 46.9082 27.1123C45.9316 27.1123 45.1423 27.8122 44.54 29.2119H43.4658C43.6123 27.9261 43.8809 26.9495 44.2715 26.2822C44.6621 25.6149 45.2562 25.0452 46.0537 24.5732C46.6722 24.2152 47.5023 23.9954 48.5439 23.9141C48.4626 21.9447 48.0638 20.5856 47.3477 19.8369C46.6478 19.0719 45.6387 18.6895 44.3203 18.6895C43.5065 18.6895 42.8636 18.8441 42.3916 19.1533C41.9196 19.4463 41.4476 20.016 40.9756 20.8623L40.0723 20.5938C40.2676 19.5358 40.5361 18.7383 40.8779 18.2012C41.415 17.4036 42.1312 16.7852 43.0264 16.3457C43.9215 15.89 44.8737 15.6621 45.8828 15.6621C46.5013 15.6621 47.2174 15.7028 48.0312 15.7842C47.9824 15.0192 47.958 14.3763 47.958 13.8555C47.958 11.9023 48.4951 10.0387 49.5693 8.26465C50.3506 6.99512 51.6608 5.66862 53.5 4.28516C51.6771 4.87109 50.4482 5.16406 49.8135 5.16406C49.2601 5.16406 47.7952 4.95247 45.4189 4.5293C44.4912 4.35026 43.8727 4.26074 43.5635 4.26074C42.9938 4.26074 42.473 4.50488 42.001 4.99316C41.5452 5.46517 41.2035 6.33594 40.9756 7.60547H39.7305C39.9909 6.10807 40.349 4.96061 40.8047 4.16309C41.5208 2.97493 42.416 2.06348 43.4902 1.42871C44.5645 0.777669 45.6468 0.452148 46.7373 0.452148C47.3883 0.452148 48.5277 0.688151 50.1553 1.16016C51.7829 1.61589 53.0768 1.84375 54.0371 1.84375C55.9902 1.84375 58.1712 1.2334 60.5801 0.0126953L61.0928 1.03809C57.7887 2.32389 55.5182 3.91895 54.2812 5.82324C53.4674 7.0765 53.0605 9.12728 53.0605 11.9756V23.377C53.0605 25.3952 52.849 26.9658 52.4258 28.0889C52.0189 29.1956 51.0993 30.6361 49.667 32.4102C51.6527 31.2871 53.1745 30.1559 54.2324 29.0166C55.2904 27.861 55.9577 26.7868 56.2344 25.7939C56.5273 24.7848 56.6738 23.0514 56.6738 20.5938V12.293C56.6738 9.70508 56.9668 7.78451 57.5527 6.53125C58.1549 5.27799 59.1885 4.17122 60.6533 3.21094C62.1182 2.25065 64.7142 1.18457 68.4414 0.0126953ZM61.6787 16.3213V17.4199C63.8109 18.2663 65.7884 18.6895 67.6113 18.6895C68.7018 18.6895 69.654 18.5837 70.4678 18.3721C71.2979 18.1605 72.2581 17.778 73.3486 17.2246C73.0557 16.0202 72.5267 14.9704 71.7617 14.0752C70.9967 13.1637 69.776 12.236 68.0996 11.292L61.6787 16.3213ZM61.6787 24.7686C63.6807 23.9059 65.585 23.4746 67.3916 23.4746C68.3844 23.4746 69.304 23.5641 70.1504 23.7432C71.013 23.9222 72.0791 24.264 73.3486 24.7686V18.4941C72.1279 19.015 71.1025 19.373 70.2725 19.5684C69.4424 19.7474 68.5146 19.8369 67.4893 19.8369C65.6338 19.8369 63.6969 19.4382 61.6787 18.6406V24.7686ZM95.3086 3.57715L95.7969 4.33398C93.0951 6.05924 91.1012 8.04492 89.8154 10.291C88.5459 12.5208 87.9111 14.9134 87.9111 17.4688C87.9111 20.7565 89.0342 23.8978 91.2803 26.8926C92.2243 26.1113 92.7939 25.4603 92.9893 24.9395C93.1846 24.4023 93.2822 23.0352 93.2822 20.8379V9.60742L103.951 0.500977C105.937 1.46126 107.605 2.12858 108.956 2.50293C110.323 2.87728 111.666 3.06445 112.984 3.06445C113.668 3.06445 114.514 2.99121 115.523 2.84473L116.134 3.57715L107.711 12.0977H114.303L111.642 16.7852H102.364V32.6055L103.927 32.6787C106.238 32.6787 108.533 32.1009 110.812 30.9453C112.537 30.0827 114.311 28.7318 116.134 26.8926L116.72 27.8203C114.832 30.7663 112.748 32.9554 110.47 34.3877C107.687 36.1292 104.513 37 100.948 37C95.333 37 90.8978 35.0632 87.6426 31.1895C85.0547 28.1133 83.7607 24.5081 83.7607 20.374C83.7607 17.8024 84.2897 15.4098 85.3477 13.1963C86.4056 10.9665 87.8949 8.97266 89.8154 7.21484C91.1826 5.97786 93.0137 4.7653 95.3086 3.57715ZM101.241 4.77344L98.2627 7.26367V18.5918C98.2627 19.8451 98.1895 20.7158 98.043 21.2041C97.9128 21.6924 97.5954 22.2214 97.0908 22.791C96.0166 24.0605 94.2913 25.68 91.915 27.6494C93.3311 29.1468 94.7308 30.2617 96.1143 30.9941C97.514 31.7266 99.223 32.2311 101.241 32.5078V4.77344ZM110.592 7.53223C108.883 7.28809 107.475 6.99512 106.368 6.65332C105.278 6.31152 103.943 5.75 102.364 4.96875V15.8818L110.592 7.53223ZM165.376 0.0126953L165.84 1.13574C164.668 1.7054 163.797 2.27507 163.228 2.84473C162.674 3.39811 162.284 4.02474 162.056 4.72461C161.828 5.4082 161.714 6.43359 161.714 7.80078C161.714 8.24023 161.722 8.82617 161.738 9.55859L162.153 27.7959C162.186 29.7979 162.397 31.1081 162.788 31.7266C163.065 32.166 163.398 32.3857 163.789 32.3857C164.261 32.3857 164.993 31.9137 165.986 30.9697L166.694 31.873L162.153 35.7549L160.64 37C159.354 36.3978 158.434 35.6003 157.881 34.6074C157.344 33.6146 157.043 32.0277 156.978 29.8467L147.529 37C142.272 33.5332 138.691 31.7998 136.787 31.7998C136.315 31.7998 135.916 31.9463 135.591 32.2393C135.347 32.4508 135.225 32.752 135.225 33.1426C135.225 33.5658 135.379 34.0296 135.688 34.5342C136.095 35.2178 136.299 35.6654 136.299 35.877C136.299 36.1862 136.185 36.4548 135.957 36.6826C135.729 36.8942 135.452 37 135.127 37C134.72 37 134.395 36.8372 134.15 36.5117C133.792 36.0723 133.613 35.5026 133.613 34.8027C133.613 34.0215 133.833 33.1507 134.272 32.1904C134.728 31.2139 135.396 30.1559 136.274 29.0166C136.453 28.7725 136.616 28.5446 136.763 28.333L140.254 23.5723C137.894 21.7982 136.234 20.0973 135.273 18.4697C134.329 16.8421 133.857 15.0192 133.857 13.001C133.857 10.6572 134.451 8.48438 135.64 6.48242C136.844 4.48047 138.643 2.90169 141.035 1.74609C143.444 0.590495 145.918 0.0126953 148.457 0.0126953C152.347 0.0126953 156.099 1.36361 159.712 4.06543C160.591 3.1377 161.437 2.38086 162.251 1.79492C163.065 1.19271 164.106 0.598633 165.376 0.0126953ZM153.364 5.67676C151.313 4.66764 149.271 4.16309 147.236 4.16309C145.072 4.16309 143.037 4.64323 141.133 5.60352C139.229 6.54753 137.804 7.77637 136.86 9.29004C135.916 10.7874 135.444 12.3255 135.444 13.9043C135.444 17.2409 137.251 20.195 140.864 22.7666L149.019 11.6094C147.798 10.9421 146.699 10.6084 145.723 10.6084C144.372 10.6084 143.265 11.2432 142.402 12.5127C142.24 12.7731 142.077 12.9033 141.914 12.9033C141.816 12.9033 141.719 12.8545 141.621 12.7568C141.54 12.6592 141.499 12.5371 141.499 12.3906C141.499 11.8861 141.751 11.1862 142.256 10.291C142.777 9.39583 143.534 8.67155 144.526 8.11816C145.535 7.56478 146.593 7.28809 147.7 7.28809C148.84 7.28809 150.133 7.56478 151.582 8.11816L153.364 5.67676ZM156.514 8.19141C156.042 7.67057 155.724 7.33691 155.562 7.19043C155.448 7.0765 155.041 6.77539 154.341 6.28711L143.672 20.8379H156.807L156.514 8.19141ZM141.035 24.4023L138.838 27.4541L151.24 32.8008L157.002 28.5527L156.904 24.4023H141.035ZM184.138 0.500977L195.197 4.1875L196.003 2.74707C196.296 2.22624 196.499 1.90885 196.613 1.79492C196.743 1.66471 196.89 1.59961 197.053 1.59961C197.215 1.59961 197.346 1.65658 197.443 1.77051C197.557 1.88444 197.614 2.01465 197.614 2.16113C197.614 2.389 197.419 2.83659 197.028 3.50391L191.877 12.415L195.905 12.2686C197.175 12.2197 198.648 12.3988 200.324 12.8057C202.017 13.2126 203.465 13.8473 204.67 14.71C205.891 15.5563 206.843 16.5654 207.526 17.7373C208.226 18.8929 208.576 20.1706 208.576 21.5703C208.576 24.1419 207.494 26.6729 205.329 29.1631C203.181 31.637 199.348 34.2493 193.83 37C191.926 36.2188 189.712 35.3968 187.189 34.5342C182.535 36.764 178.734 37.8789 175.788 37.8789C173.688 37.8789 172.069 37.4232 170.93 36.5117C169.807 35.584 169.245 34.5179 169.245 33.3135C169.245 32.0277 169.929 30.8558 171.296 29.7979C172.663 28.7236 174.689 28.1865 177.375 28.1865C178.433 28.1865 179.751 28.3005 181.33 28.5283L183.161 25.208L179.719 25.3545C178.872 25.3708 177.733 25.2568 176.301 25.0127C174.868 24.7523 173.688 24.3372 172.761 23.7676C171.849 23.1979 171.166 22.498 170.71 21.668C170.254 20.8379 170.026 19.9671 170.026 19.0557C170.026 17.6071 170.539 16.3213 171.564 15.1982C172.215 14.4821 173.29 13.8392 174.787 13.2695L174.763 12.9766C174.763 11.4629 175.43 9.72949 176.765 7.77637C178.116 5.80697 180.573 3.38184 184.138 0.500977ZM192.976 8.09375C190.42 6.82422 188.426 5.97786 186.994 5.55469C185.562 5.11523 184.3 4.89551 183.21 4.89551C181.68 4.89551 180.435 5.32682 179.475 6.18945C178.514 7.05208 178.034 8.0612 178.034 9.2168C178.034 10.3561 178.441 11.292 179.255 12.0244C180.085 12.7568 181.33 13.123 182.99 13.123C184.097 13.123 186.587 12.9196 190.461 12.5127L192.976 8.09375ZM187.775 17.1514C185.676 17.4118 183.641 17.542 181.672 17.542C179.458 17.542 177.888 17.2816 176.96 16.7607C176.032 16.2399 175.34 15.4261 174.885 14.3193C173.713 15.068 173.127 15.9958 173.127 17.1025C173.127 18.1117 173.583 18.9417 174.494 19.5928C175.699 20.4391 177.757 20.8623 180.671 20.8623C182.022 20.8623 183.739 20.7728 185.822 20.5938L187.775 17.1514ZM187.189 20.4961C191.079 20.0566 193.781 19.8369 195.295 19.8369C197.362 19.8369 198.941 20.3089 200.031 21.2529C201.122 22.1807 201.667 23.2956 201.667 24.5977C201.667 25.737 201.13 26.8438 200.056 27.918C198.998 28.9922 196.76 30.2699 193.342 31.751L198.176 33.2402C200.308 31.9219 201.952 30.4977 203.107 28.9678C204.263 27.4378 204.841 25.7533 204.841 23.9141C204.841 22.7096 204.475 21.5296 203.742 20.374C203.026 19.2021 201.919 18.2744 200.422 17.5908C198.924 16.891 197.199 16.541 195.246 16.541C193.667 16.541 191.649 16.7038 189.191 17.0293L187.189 20.4961ZM182.453 28.7236C184.064 29.0492 185.375 29.3503 186.384 29.627C187.409 29.9036 189.224 30.457 191.828 31.2871C195.441 29.5944 197.248 27.9098 197.248 26.2334C197.248 25.7126 197.012 25.2406 196.54 24.8174C196.084 24.3942 195.498 24.1826 194.782 24.1826C193.903 24.1826 192.821 24.2803 191.535 24.4756C187.954 24.9639 185.603 25.208 184.479 25.208L182.453 28.7236ZM185.554 34.0215C181.387 32.7682 178.01 32.1416 175.422 32.1416C174.087 32.1416 173.029 32.4346 172.248 33.0205C171.711 33.4111 171.442 33.8913 171.442 34.4609C171.442 35.0632 171.711 35.5433 172.248 35.9014C173.094 36.4873 174.323 36.7803 175.935 36.7803C178.409 36.7803 181.615 35.8607 185.554 34.0215ZM248.896 0.500977L249.799 1.13574C249.457 2.71452 248.985 3.95964 248.383 4.87109C247.797 5.78255 246.926 6.50684 245.771 7.04395C244.631 7.56478 243.313 7.8252 241.815 7.8252C241.018 7.8252 240.049 7.77637 238.91 7.67871V32.3613C241.384 31.6126 243.354 30.6523 244.818 29.4805C246.283 28.2923 247.642 26.5915 248.896 24.3779L249.799 24.8174C249.083 26.9984 248.253 28.748 247.309 30.0664C245.795 32.1986 243.842 33.8913 241.449 35.1445C239.057 36.3815 236.29 37 233.148 37C230.089 37 227.224 36.4141 224.555 35.2422C223.008 34.5586 221.592 33.5983 220.307 32.3613C219.021 31.1243 217.963 29.627 217.133 27.8691C216.319 26.1113 215.912 24.1175 215.912 21.8877C215.912 19.6416 216.36 17.4932 217.255 15.4424C218.15 13.3916 219.468 11.4303 221.21 9.55859C222.317 8.38672 223.879 7.09277 225.897 5.67676L222.821 5.50586C221.682 5.44076 220.421 5.6849 219.037 6.23828C217.654 6.77539 216.571 7.49967 215.79 8.41113C215.025 9.32259 214.358 10.6816 213.788 12.4883L212.885 11.9512C213.438 9.63997 214.154 7.84147 215.033 6.55566C216.205 4.84668 217.751 3.52832 219.672 2.60059C221.592 1.65658 223.782 1.18457 226.239 1.18457C227.948 1.18457 230.967 1.54264 235.297 2.25879C239.626 2.97493 242.605 3.33301 244.232 3.33301C245.323 3.33301 246.153 3.17025 246.723 2.84473C247.309 2.50293 248.033 1.72168 248.896 0.500977ZM228.632 5.9209L227.338 5.79883C225.157 7.67057 223.554 9.54232 222.528 11.4141C221.145 13.9368 220.453 16.5329 220.453 19.2021C220.453 23.7594 222.325 27.4785 226.068 30.3594C227.257 29.3665 227.981 28.5609 228.241 27.9424C228.502 27.3239 228.632 26.0625 228.632 24.1582V5.9209ZM237.787 7.45898C236.241 7.2474 234.874 7.01953 233.686 6.77539V21.375C233.686 23.084 233.612 24.1745 233.466 24.6465C233.336 25.1022 233.018 25.623 232.514 26.209C231.602 27.2181 229.779 28.8132 227.045 30.9941C228.412 31.6615 229.519 32.109 230.365 32.3369C231.83 32.7275 233.238 32.9229 234.589 32.9229C235.305 32.9229 236.371 32.8333 237.787 32.6543V7.45898ZM278.009 0.720703L286.432 11.4385L278.595 16.7363C280.825 18.071 282.607 19.6579 283.941 21.4971C285.292 23.32 286.342 25.68 287.091 28.5771C287.433 29.9769 287.783 31.0023 288.141 31.6533C288.385 32.0765 288.84 32.5811 289.508 33.167L291.949 31.0918L292.779 31.9707L286.871 37C285.683 36.2513 284.828 35.4538 284.308 34.6074C283.933 34.0378 283.25 32.109 282.257 28.8213C281.72 27.0798 281.036 25.5905 280.206 24.3535C279.376 23.1165 278.497 22.1888 277.569 21.5703C276.642 20.9355 275.396 20.374 273.834 19.8857L272.174 20.96V31.0918C273.655 31.5801 275.217 32.2718 276.861 33.167L279.4 30.9209L280.182 31.7754L273.834 37C271.523 35.8281 269.513 35.0062 267.804 34.5342C266.111 34.0622 264.402 33.8262 262.677 33.8262C260.512 33.8262 258.429 34.1842 256.427 34.9004C255.369 35.291 254.189 35.9909 252.887 37L252.228 36.4141C253.839 34.347 255.458 32.8252 257.086 31.8486C258.73 30.8721 260.74 30.2129 263.116 29.8711V28.7725C263.116 27.1937 262.913 25.9079 262.506 24.915C262.099 23.9059 261.358 22.8561 260.284 21.7656C259.21 20.6589 258.079 19.7555 256.891 19.0557C256.126 18.6162 255.051 18.1768 253.668 17.7373V16.7363C254.986 16.248 256.606 15.3529 258.526 14.0508L263.116 10.9746C263.116 8.875 262.97 7.3776 262.677 6.48242C262.384 5.57096 261.814 4.81413 260.968 4.21191C260.121 3.6097 259.177 3.30859 258.136 3.30859C257.501 3.30859 256.923 3.40625 256.402 3.60156C255.882 3.79688 255.239 4.16309 254.474 4.7002L253.668 4.11426C254.938 2.81217 256.077 1.93327 257.086 1.47754C258.111 1.00553 259.373 0.769531 260.87 0.769531C262.547 0.769531 263.938 1.10319 265.045 1.77051C266.168 2.43783 267.006 3.34928 267.56 4.50488C267.885 5.20475 268.072 6.21387 268.121 7.53223L278.009 0.720703ZM274.762 4.3584L272.174 6.0918V19.5928L281.72 13.2207L274.762 4.3584ZM271.051 6.87305L268.121 8.92383V30.0664C269.098 30.2129 270.074 30.4326 271.051 30.7256V6.87305ZM263.116 12.3418L257.696 16.0039C258.722 16.4922 259.568 16.9805 260.235 17.4688C260.919 17.957 261.879 18.7708 263.116 19.9102V12.3418ZM333.66 1.30664L334.417 2.03906C333.017 3.76432 332.146 5.02572 331.805 5.82324C331.479 6.62077 331.316 7.79264 331.316 9.33887V26.7217C331.316 29.1305 331.52 30.6523 331.927 31.2871C332.334 31.9219 332.814 32.2393 333.367 32.2393C333.79 32.2393 334.238 31.9951 334.71 31.5068L335.076 32.9473L329.925 37C328.509 36.1211 327.565 35.2747 327.093 34.4609C326.637 33.6309 326.344 32.223 326.214 30.2373C323.626 32.695 321.185 34.4365 318.89 35.4619C316.595 36.4873 314.096 37 311.395 37C306.43 37 302.622 35.2096 299.969 31.6289C297.983 28.9759 296.99 25.8916 296.99 22.376C296.99 19.7718 297.56 17.3467 298.699 15.1006C299.839 12.8382 301.556 10.6572 303.851 8.55762C305.413 7.1416 307.505 5.64421 310.125 4.06543C308.074 4.56999 306.536 4.82227 305.511 4.82227C304.778 4.82227 303.956 4.78158 303.045 4.7002C302.133 4.61882 301.377 4.57812 300.774 4.57812C299.407 4.57812 298.325 4.99316 297.527 5.82324C296.746 6.65332 296.355 7.80078 296.355 9.26562C296.355 9.80273 296.404 10.4782 296.502 11.292H295.477C295.281 10.1364 295.184 9.19238 295.184 8.45996C295.184 5.87207 295.859 3.82129 297.21 2.30762C298.561 0.777669 300.156 0.0126953 301.995 0.0126953C302.516 0.0126953 303.004 0.0615234 303.46 0.15918C303.753 0.224284 304.721 0.557943 306.365 1.16016C308.025 1.74609 309.515 2.03906 310.833 2.03906C312.005 2.03906 313.112 1.81934 314.153 1.37988C314.69 1.15202 315.309 0.696289 316.009 0.0126953H317.107V13.6846C318.784 14.596 320.371 15.0518 321.868 15.0518C322.649 15.0518 323.341 14.9622 323.943 14.7832C324.562 14.5879 325.319 14.2217 326.214 13.6846V6.62891L323.455 4.60254L320.647 7.6543L319.842 6.89746L325.75 0.330078L330.95 4.06543L333.66 1.30664ZM316.009 2.42969C314.983 3.52018 314.324 4.49674 314.031 5.35938C313.755 6.22201 313.616 7.92285 313.616 10.4619V21.79C313.616 23.027 313.527 23.9466 313.348 24.5488C313.104 25.3138 312.656 26.0706 312.005 26.8193C311.061 27.9098 309.368 29.3421 306.927 31.1162C308.099 31.9137 309.197 32.4753 310.223 32.8008C311.248 33.1263 312.461 33.2891 313.86 33.2891C314.544 33.2891 315.26 33.2321 316.009 33.1182V2.42969ZM305.95 30.335C307.041 29.1794 307.749 28.097 308.074 27.0879C308.416 26.0788 308.587 24.2803 308.587 21.6924V14.4414C308.587 12.5697 308.636 11.349 308.733 10.7793C308.847 10.2096 309.116 9.55859 309.539 8.82617C310.271 7.55664 311.533 5.88021 313.323 3.79688C310.735 5.29427 308.668 6.7347 307.122 8.11816C305.592 9.50163 304.331 11.2432 303.338 13.3428C302.345 15.4424 301.849 17.7699 301.849 20.3252C301.849 22.6038 302.272 24.6709 303.118 26.5264C303.704 27.7959 304.648 29.0654 305.95 30.335ZM326.214 15.0029C325.237 15.4912 324.44 15.8167 323.821 15.9795C323.203 16.1423 322.511 16.2236 321.746 16.2236C320.314 16.2236 318.768 15.8167 317.107 15.0029V20.6914C318.849 19.9264 320.42 19.5439 321.819 19.5439C323.154 19.5439 324.619 19.9264 326.214 20.6914V15.0029ZM326.214 21.8877C324.586 21.0739 323.113 20.667 321.795 20.667C320.997 20.667 320.257 20.7646 319.573 20.96C318.906 21.139 318.084 21.4971 317.107 22.0342V32.9229C318.735 32.5811 320.216 32.1009 321.551 31.4824C322.902 30.8477 324.456 29.8874 326.214 28.6016V21.8877ZM383.745 2.13672L384.502 2.91797C383.428 4.10612 382.744 5.08268 382.451 5.84766C382.158 6.59635 382.012 7.73568 382.012 9.26562V28.1377C382.012 30.0745 382.174 31.2952 382.5 31.7998C382.826 32.2881 383.257 32.5322 383.794 32.5322C384.233 32.5322 384.868 32.1579 385.698 31.4092L386.406 32.3613L380.498 37C379.082 36.2839 378.122 35.4619 377.617 34.5342C377.129 33.5902 376.885 31.9463 376.885 29.6025V6.2627L372.783 3.11328L371.172 4.11426V16.2725H374.126L371.172 19.9346V30.2129L373.076 28.6504L373.809 29.4316L364.775 37C363.408 35.3724 362.301 34.1842 361.455 33.4355C360.837 32.8984 360.104 32.4102 359.258 31.9707V31.0918C360.023 30.8314 360.527 30.4163 360.771 29.8467C360.951 29.4235 361.04 28.4307 361.04 26.8682V19.9346H353.643V30.457C353.643 33.3542 352.902 35.584 351.421 37.1465C349.956 38.709 348.035 39.4902 345.659 39.4902C345.138 39.4902 344.211 39.3926 342.876 39.1973C341.965 39.0671 341.305 39.002 340.898 39.002C340.068 39.002 339.458 39.1891 339.067 39.5635C338.693 39.9378 338.506 40.5726 338.506 41.4678H337.554C337.358 40.7679 337.261 40.182 337.261 39.71C337.261 38.8311 337.489 38.001 337.944 37.2197C338.4 36.4548 339.01 35.8851 339.775 35.5107C340.361 35.2178 341.436 34.998 342.998 34.8516C344.561 34.7051 345.716 34.2168 346.465 33.3867C347.214 32.5404 347.588 31.3766 347.588 29.8955C347.588 27.568 347.043 25.6556 345.952 24.1582C344.862 22.6445 343.543 21.8877 341.997 21.8877C340.793 21.8877 339.8 22.4574 339.019 23.5967L338.14 23.2305C338.579 22.026 339.084 21.0983 339.653 20.4473C340.239 19.7962 341.021 19.2835 341.997 18.9092C342.713 18.6325 343.755 18.486 345.122 18.4697C345.106 17.9814 345.098 17.6152 345.098 17.3711C345.098 14.6367 345.651 12.3337 346.758 10.4619C347.865 8.59017 349.582 6.87305 351.909 5.31055C354.253 3.73177 357.614 1.96582 361.992 0.0126953C363.538 0.842773 364.58 1.67285 365.117 2.50293C365.671 3.33301 365.98 4.53743 366.045 6.11621L375.591 0.0126953L381.45 4.38281L383.745 2.13672ZM361.04 16.2725V8.99707C361.04 7.22298 360.812 5.93717 360.356 5.13965C359.901 4.34212 359.087 3.69922 357.915 3.21094C356.792 3.7806 355.994 4.30143 355.522 4.77344C354.888 5.44076 354.416 6.23828 354.106 7.16602C353.797 8.09375 353.643 9.42839 353.643 11.1699V18.9092L355.669 16.2725H361.04ZM370.098 4.84668L366.045 7.50781V16.2725H370.098V4.84668ZM353.472 5.77441C352.056 6.88118 351.136 7.93913 350.713 8.94824C350.29 9.94108 350.078 11.6826 350.078 14.1729V27.9912C350.078 30.2536 349.785 31.8405 349.199 32.752C348.63 33.6634 347.515 34.4528 345.854 35.1201C346.587 35.1689 347.205 35.1934 347.71 35.1934C348.914 35.1934 349.891 34.9899 350.64 34.583C351.405 34.1598 351.901 33.6471 352.129 33.0449C352.373 32.4264 352.495 31.3522 352.495 29.8223V11.4141C352.495 10.0143 352.585 8.85059 352.764 7.92285C352.878 7.35319 353.114 6.63704 353.472 5.77441ZM370.098 19.9346H366.045V26.2578C366.045 28.4388 366.191 29.8385 366.484 30.457C366.956 31.515 367.591 32.0439 368.389 32.0439C368.812 32.0439 369.382 31.7266 370.098 31.0918V19.9346ZM438.749 0.500977L439.652 1.13574C439.311 2.71452 438.839 3.95964 438.236 4.87109C437.65 5.78255 436.78 6.50684 435.624 7.04395C434.485 7.56478 433.166 7.8252 431.669 7.8252C430.871 7.8252 429.903 7.77637 428.764 7.67871V32.3613C431.238 31.6126 433.207 30.6523 434.672 29.4805C436.137 28.2923 437.496 26.5915 438.749 24.3779L439.652 24.8174C438.936 26.9984 438.106 28.748 437.162 30.0664C435.648 32.1986 433.695 33.8913 431.303 35.1445C428.91 36.3815 426.143 37 423.002 37C419.942 37 417.077 36.4141 414.408 35.2422C412.862 34.5586 411.446 33.5983 410.16 32.3613C408.874 31.1243 407.816 29.627 406.986 27.8691C406.173 26.1113 405.766 24.1175 405.766 21.8877C405.766 19.6416 406.213 17.4932 407.108 15.4424C408.004 13.3916 409.322 11.4303 411.063 9.55859C412.17 8.38672 413.733 7.09277 415.751 5.67676L412.675 5.50586C411.535 5.44076 410.274 5.6849 408.891 6.23828C407.507 6.77539 406.425 7.49967 405.644 8.41113C404.879 9.32259 404.211 10.6816 403.642 12.4883L402.738 11.9512C403.292 9.63997 404.008 7.84147 404.887 6.55566C406.059 4.84668 407.605 3.52832 409.525 2.60059C411.446 1.65658 413.635 1.18457 416.093 1.18457C417.802 1.18457 420.821 1.54264 425.15 2.25879C429.48 2.97493 432.458 3.33301 434.086 3.33301C435.176 3.33301 436.007 3.17025 436.576 2.84473C437.162 2.50293 437.886 1.72168 438.749 0.500977ZM418.485 5.9209L417.191 5.79883C415.01 7.67057 413.407 9.54232 412.382 11.4141C410.998 13.9368 410.307 16.5329 410.307 19.2021C410.307 23.7594 412.178 27.4785 415.922 30.3594C417.11 29.3665 417.834 28.5609 418.095 27.9424C418.355 27.3239 418.485 26.0625 418.485 24.1582V5.9209ZM427.641 7.45898C426.094 7.2474 424.727 7.01953 423.539 6.77539V21.375C423.539 23.084 423.466 24.1745 423.319 24.6465C423.189 25.1022 422.872 25.623 422.367 26.209C421.456 27.2181 419.633 28.8132 416.898 30.9941C418.266 31.6615 419.372 32.109 420.219 32.3369C421.684 32.7275 423.091 32.9229 424.442 32.9229C425.159 32.9229 426.225 32.8333 427.641 32.6543V7.45898ZM469.889 0.0126953L470.304 0.842773C468.595 1.34733 467.415 2.02279 466.764 2.86914C466.113 3.69922 465.787 4.82227 465.787 6.23828C465.787 7.99609 466.17 11.1048 466.935 15.5645C467.553 19.1615 467.919 21.4401 468.033 22.4004C468.147 23.3444 468.204 24.3291 468.204 25.3545C468.204 27.9424 467.724 30.1071 466.764 31.8486C465.803 33.5739 464.575 34.8353 463.077 35.6328C461.58 36.4303 460.221 36.8291 459 36.8291C457.714 36.8291 455.574 36.3571 452.579 35.4131C450.203 34.6807 448.51 34.3145 447.501 34.3145C446.492 34.3145 445.637 34.5749 444.938 35.0957C444.238 35.6003 443.717 36.3571 443.375 37.3662L442.447 37C442.838 35.4701 443.351 34.2819 443.985 33.4355C444.815 32.3288 445.694 31.5557 446.622 31.1162C447.566 30.6768 448.933 30.4082 450.724 30.3105C452.514 30.2129 453.735 29.8304 454.386 29.1631C455.037 28.512 455.362 27.4785 455.362 26.0625C455.362 23.2142 454.801 21.0495 453.678 19.5684C452.864 18.4941 451.79 17.957 450.455 17.957C449.902 17.957 449.332 18.0791 448.746 18.3232C448.176 18.5511 447.403 19.0231 446.427 19.7393L445.719 19.1533C446.581 17.6885 447.59 16.5898 448.746 15.8574C449.902 15.1087 451.253 14.7344 452.799 14.7344C453.027 14.7344 453.303 14.7425 453.629 14.7588C453.678 12.1058 454.052 9.93294 454.752 8.24023C455.468 6.53125 456.819 4.57812 458.805 2.38086C456.868 3.30859 455.631 3.86198 455.094 4.04102C454.557 4.20378 453.979 4.28516 453.36 4.28516C452.856 4.28516 452.115 4.19564 451.139 4.0166C450.178 3.83757 449.454 3.74805 448.966 3.74805C447.826 3.74805 446.956 4.00033 446.354 4.50488C445.751 5.00944 445.369 5.80697 445.206 6.89746L444.278 6.70215C444.555 4.89551 445.141 3.47949 446.036 2.4541C447.306 1.02181 449.007 0.305664 451.139 0.305664C451.757 0.305664 452.498 0.40332 453.36 0.598633C454.972 0.94043 456.331 1.11133 457.438 1.11133C458.3 1.11133 459.057 1.03809 459.708 0.891602C460.359 0.745117 461.148 0.452148 462.076 0.0126953L462.687 0.720703C460.978 2.12044 459.789 3.52832 459.122 4.94434C458.471 6.36035 458.146 8.35417 458.146 10.9258C458.146 12.2767 458.194 13.4567 458.292 14.4658C458.325 14.9215 458.536 16.4027 458.927 18.9092C459.399 22.0667 459.635 24.1419 459.635 25.1348C459.635 26.9902 459.073 28.4307 457.95 29.4561C457.12 30.2048 455.769 30.7744 453.897 31.165C455.802 32.8252 457.128 33.8587 457.877 34.2656C458.642 34.6725 459.407 34.876 460.172 34.876C461.262 34.876 462.182 34.4854 462.931 33.7041C463.696 32.9066 464.078 31.873 464.078 30.6035C464.078 29.0736 463.712 26.1683 462.979 21.8877C462.101 16.8421 461.661 13.0661 461.661 10.5596C461.661 8.21582 461.987 6.35221 462.638 4.96875C463.305 3.56901 464.29 2.42155 465.592 1.52637C466.568 0.859049 468.001 0.354492 469.889 0.0126953ZM519.437 2.13672L520.193 2.91797C519.119 4.10612 518.436 5.08268 518.143 5.84766C517.85 6.59635 517.703 7.73568 517.703 9.26562V28.1377C517.703 30.0745 517.866 31.2952 518.191 31.7998C518.517 32.2881 518.948 32.5322 519.485 32.5322C519.925 32.5322 520.56 32.1579 521.39 31.4092L522.098 32.3613L516.189 37C514.773 36.2839 513.813 35.4619 513.309 34.5342C512.82 33.5902 512.576 31.9463 512.576 29.6025V6.2627L508.475 3.11328L506.863 4.11426V16.2725H509.817L506.863 19.9346V30.2129L508.768 28.6504L509.5 29.4316L500.467 37C499.1 35.3724 497.993 34.1842 497.146 33.4355C496.528 32.8984 495.796 32.4102 494.949 31.9707V31.0918C495.714 30.8314 496.219 30.4163 496.463 29.8467C496.642 29.4235 496.731 28.4307 496.731 26.8682V19.9346H489.334V30.457C489.334 33.3542 488.593 35.584 487.112 37.1465C485.647 38.709 483.727 39.4902 481.351 39.4902C480.83 39.4902 479.902 39.3926 478.567 39.1973C477.656 39.0671 476.997 39.002 476.59 39.002C475.76 39.002 475.149 39.1891 474.759 39.5635C474.384 39.9378 474.197 40.5726 474.197 41.4678H473.245C473.05 40.7679 472.952 40.182 472.952 39.71C472.952 38.8311 473.18 38.001 473.636 37.2197C474.091 36.4548 474.702 35.8851 475.467 35.5107C476.053 35.2178 477.127 34.998 478.689 34.8516C480.252 34.7051 481.408 34.2168 482.156 33.3867C482.905 32.5404 483.279 31.3766 483.279 29.8955C483.279 27.568 482.734 25.6556 481.644 24.1582C480.553 22.6445 479.235 21.8877 477.688 21.8877C476.484 21.8877 475.491 22.4574 474.71 23.5967L473.831 23.2305C474.271 22.026 474.775 21.0983 475.345 20.4473C475.931 19.7962 476.712 19.2835 477.688 18.9092C478.405 18.6325 479.446 18.486 480.813 18.4697C480.797 17.9814 480.789 17.6152 480.789 17.3711C480.789 14.6367 481.342 12.3337 482.449 10.4619C483.556 8.59017 485.273 6.87305 487.601 5.31055C489.944 3.73177 493.305 1.96582 497.684 0.0126953C499.23 0.842773 500.271 1.67285 500.809 2.50293C501.362 3.33301 501.671 4.53743 501.736 6.11621L511.282 0.0126953L517.142 4.38281L519.437 2.13672ZM496.731 16.2725V8.99707C496.731 7.22298 496.504 5.93717 496.048 5.13965C495.592 4.34212 494.778 3.69922 493.606 3.21094C492.483 3.7806 491.686 4.30143 491.214 4.77344C490.579 5.44076 490.107 6.23828 489.798 7.16602C489.489 8.09375 489.334 9.42839 489.334 11.1699V18.9092L491.36 16.2725H496.731ZM505.789 4.84668L501.736 7.50781V16.2725H505.789V4.84668ZM489.163 5.77441C487.747 6.88118 486.827 7.93913 486.404 8.94824C485.981 9.94108 485.77 11.6826 485.77 14.1729V27.9912C485.77 30.2536 485.477 31.8405 484.891 32.752C484.321 33.6634 483.206 34.4528 481.546 35.1201C482.278 35.1689 482.897 35.1934 483.401 35.1934C484.606 35.1934 485.582 34.9899 486.331 34.583C487.096 34.1598 487.592 33.6471 487.82 33.0449C488.064 32.4264 488.187 31.3522 488.187 29.8223V11.4141C488.187 10.0143 488.276 8.85059 488.455 7.92285C488.569 7.35319 488.805 6.63704 489.163 5.77441ZM505.789 19.9346H501.736V26.2578C501.736 28.4388 501.883 29.8385 502.176 30.457C502.648 31.515 503.283 32.0439 504.08 32.0439C504.503 32.0439 505.073 31.7266 505.789 31.0918V19.9346ZM537.539 3.57715L538.027 4.33398C535.326 6.05924 533.332 8.04492 532.046 10.291C530.776 12.5208 530.142 14.9134 530.142 17.4688C530.142 20.7565 531.265 23.8978 533.511 26.8926C534.455 26.1113 535.024 25.4603 535.22 24.9395C535.415 24.4023 535.513 23.0352 535.513 20.8379V9.60742L546.182 0.500977C548.167 1.46126 549.836 2.12858 551.187 2.50293C552.554 2.87728 553.896 3.06445 555.215 3.06445C555.898 3.06445 556.745 2.99121 557.754 2.84473L558.364 3.57715L549.941 12.0977H556.533L553.872 16.7852H544.595V32.6055L546.157 32.6787C548.468 32.6787 550.763 32.1009 553.042 30.9453C554.767 30.0827 556.541 28.7318 558.364 26.8926L558.95 27.8203C557.062 30.7663 554.979 32.9554 552.7 34.3877C549.917 36.1292 546.743 37 543.179 37C537.563 37 533.128 35.0632 529.873 31.1895C527.285 28.1133 525.991 24.5081 525.991 20.374C525.991 17.8024 526.52 15.4098 527.578 13.1963C528.636 10.9665 530.125 8.97266 532.046 7.21484C533.413 5.97786 535.244 4.7653 537.539 3.57715ZM543.472 4.77344L540.493 7.26367V18.5918C540.493 19.8451 540.42 20.7158 540.273 21.2041C540.143 21.6924 539.826 22.2214 539.321 22.791C538.247 24.0605 536.522 25.68 534.146 27.6494C535.562 29.1468 536.961 30.2617 538.345 30.9941C539.744 31.7266 541.453 32.2311 543.472 32.5078V4.77344ZM552.822 7.53223C551.113 7.28809 549.705 6.99512 548.599 6.65332C547.508 6.31152 546.174 5.75 544.595 4.96875V15.8818L552.822 7.53223ZM576.101 0.500977L587.16 4.1875L587.966 2.74707C588.259 2.22624 588.462 1.90885 588.576 1.79492C588.706 1.66471 588.853 1.59961 589.016 1.59961C589.178 1.59961 589.309 1.65658 589.406 1.77051C589.52 1.88444 589.577 2.01465 589.577 2.16113C589.577 2.389 589.382 2.83659 588.991 3.50391L583.84 12.415L587.868 12.2686C589.138 12.2197 590.611 12.3988 592.287 12.8057C593.98 13.2126 595.428 13.8473 596.633 14.71C597.854 15.5563 598.806 16.5654 599.489 17.7373C600.189 18.8929 600.539 20.1706 600.539 21.5703C600.539 24.1419 599.457 26.6729 597.292 29.1631C595.144 31.637 591.311 34.2493 585.793 37C583.889 36.2188 581.675 35.3968 579.152 34.5342C574.497 36.764 570.697 37.8789 567.751 37.8789C565.651 37.8789 564.032 37.4232 562.893 36.5117C561.77 35.584 561.208 34.5179 561.208 33.3135C561.208 32.0277 561.892 30.8558 563.259 29.7979C564.626 28.7236 566.652 28.1865 569.338 28.1865C570.396 28.1865 571.714 28.3005 573.293 28.5283L575.124 25.208L571.682 25.3545C570.835 25.3708 569.696 25.2568 568.264 25.0127C566.831 24.7523 565.651 24.3372 564.724 23.7676C563.812 23.1979 563.129 22.498 562.673 21.668C562.217 20.8379 561.989 19.9671 561.989 19.0557C561.989 17.6071 562.502 16.3213 563.527 15.1982C564.178 14.4821 565.253 13.8392 566.75 13.2695L566.726 12.9766C566.726 11.4629 567.393 9.72949 568.728 7.77637C570.078 5.80697 572.536 3.38184 576.101 0.500977ZM584.938 8.09375C582.383 6.82422 580.389 5.97786 578.957 5.55469C577.525 5.11523 576.263 4.89551 575.173 4.89551C573.643 4.89551 572.398 5.32682 571.438 6.18945C570.477 7.05208 569.997 8.0612 569.997 9.2168C569.997 10.3561 570.404 11.292 571.218 12.0244C572.048 12.7568 573.293 13.123 574.953 13.123C576.06 13.123 578.55 12.9196 582.424 12.5127L584.938 8.09375ZM579.738 17.1514C577.639 17.4118 575.604 17.542 573.635 17.542C571.421 17.542 569.851 17.2816 568.923 16.7607C567.995 16.2399 567.303 15.4261 566.848 14.3193C565.676 15.068 565.09 15.9958 565.09 17.1025C565.09 18.1117 565.546 18.9417 566.457 19.5928C567.661 20.4391 569.72 20.8623 572.634 20.8623C573.985 20.8623 575.702 20.7728 577.785 20.5938L579.738 17.1514ZM579.152 20.4961C583.042 20.0566 585.744 19.8369 587.258 19.8369C589.325 19.8369 590.904 20.3089 591.994 21.2529C593.085 22.1807 593.63 23.2956 593.63 24.5977C593.63 25.737 593.093 26.8438 592.019 27.918C590.961 28.9922 588.723 30.2699 585.305 31.751L590.139 33.2402C592.271 31.9219 593.915 30.4977 595.07 28.9678C596.226 27.4378 596.804 25.7533 596.804 23.9141C596.804 22.7096 596.438 21.5296 595.705 20.374C594.989 19.2021 593.882 18.2744 592.385 17.5908C590.887 16.891 589.162 16.541 587.209 16.541C585.63 16.541 583.612 16.7038 581.154 17.0293L579.152 20.4961ZM574.416 28.7236C576.027 29.0492 577.338 29.3503 578.347 29.627C579.372 29.9036 581.187 30.457 583.791 31.2871C587.404 29.5944 589.211 27.9098 589.211 26.2334C589.211 25.7126 588.975 25.2406 588.503 24.8174C588.047 24.3942 587.461 24.1826 586.745 24.1826C585.866 24.1826 584.784 24.2803 583.498 24.4756C579.917 24.9639 577.565 25.208 576.442 25.208L574.416 28.7236ZM577.517 34.0215C573.35 32.7682 569.973 32.1416 567.385 32.1416C566.05 32.1416 564.992 32.4346 564.211 33.0205C563.674 33.4111 563.405 33.8913 563.405 34.4609C563.405 35.0632 563.674 35.5433 564.211 35.9014C565.057 36.4873 566.286 36.7803 567.897 36.7803C570.371 36.7803 573.578 35.8607 577.517 34.0215Z" fill="black"/>
</svg>
